<svg width="980" height="551" xmlns="http://www.w3.org/2000/svg" xmlns:xlink="http://www.w3.org/1999/xlink">
<path fill="#ff595e" d="M 83.46 140.87 Q 83.46 140.87 81.46 143.53 79.45 146.18 76.93 148.22 74.40 150.26 72.02 152.24 69.65 154.22 67.41 156.48 65.18 158.74 63.36 161.11 61.53 163.48 58.76 168.12 55.99 172.76 54.06 176.23 52.13 179.69 50.17 182.87 48.22 186.05 46.82 188.16 45.43 190.26 44.35 192.34 43.26 194.42 42.86 196.06 42.45 197.70 42.27 199.11 42.09 200.51 42.00 201.79 41.92 203.06 43.21 204.52 44.51 205.98 46.64 206.99 48.78 208.00 52.20 208.98 55.62 209.96 59.24 210.56 62.86 211.15 66.75 211.41 70.64 211.66 73.72 211.59 76.80 211.52 82.12 210.94 87.45 210.36 90.89 210.11 94.33 209.86 96.92 209.75 99.50 209.64 101.27 209.78 103.03 209.93 104.25 209.98 105.46 210.04 108.10 209.88 110.74 209.72 113.86 209.29 116.98 208.86 119.56 208.32 122.14 207.78 125.61 206.82 129.07 205.86 132.26 205.07 135.44 204.28 137.73 203.76 140.01 203.24 142.31 202.32 144.60 201.41 146.27 200.50 147.93 199.59 149.97 198.45 152.00 197.31 154.27 195.76 156.55 194.21 158.75 192.31 160.94 190.41 162.40 188.91 163.85 187.40 164.51 186.09 165.17 184.77 165.06 183.40 164.94 182.03 165.51 179.04 166.07 176.05 166.92 173.94 167.76 171.84 169.08 169.60 170.40 167.37 170.83 165.67 171.26 163.97 170.75 162.29 170.25 160.61 168.90 158.93 167.55 157.24 165.86 155.35 164.17 153.45 162.11 152.03 160.06 150.60 158.07 149.42 156.09 148.24 153.25 146.84 150.42 145.43 146.71 144.13 143.00 142.82 140.06 141.68 137.12 140.54 134.67 139.28 132.23 138.02 130.35 137.15 128.47 136.29 124.42 134.84 120.36 133.39 115.64 132.61 110.91 131.84 106.88 131.51 102.85 131.17 98.75 131.03 94.65 130.88 91.43 130.82 88.21 130.76 83.34 130.73 78.47 130.71 74.46 131.06 70.44 131.41 68.08 131.92 65.71 132.42 63.53 132.83 61.35 133.24 60.38 133.56 59.41 133.88 58.96 135.06 58.50 136.24 56.58 137.56 54.65 138.88 54.65 138.88 54.64 138.87 54.64 138.87 54.64 138.86 54.68 137.39 54.72 135.92 54.96 134.85 55.21 133.77 55.67 132.64 56.13 131.50 57.13 130.80 58.13 130.10 59.37 129.71 60.61 129.31 62.75 128.91 64.89 128.51 67.49 127.97 70.09 127.43 74.29 127.07 78.49 126.71 83.39 126.73 88.29 126.76 91.54 126.82 94.80 126.88 98.99 127.03 103.19 127.19 107.38 127.54 111.57 127.90 116.64 128.76 121.70 129.62 125.93 131.14 130.15 132.65 132.11 133.56 134.07 134.47 136.32 135.64 138.57 136.81 141.45 137.93 144.34 139.05 148.27 140.45 152.19 141.85 155.16 143.33 158.13 144.80 160.25 146.07 162.37 147.34 164.75 149.06 167.14 150.78 168.94 152.81 170.75 154.85 172.42 157.20 174.08 159.56 174.60 162.16 175.12 164.77 174.49 167.07 173.85 169.38 172.65 171.37 171.46 173.36 170.73 175.10 170.00 176.84 169.47 179.42 168.94 182.01 168.85 184.21 168.77 186.41 167.76 188.28 166.75 190.15 165.15 191.79 163.55 193.44 161.18 195.48 158.80 197.52 156.38 199.16 153.96 200.80 151.90 201.95 149.84 203.11 147.95 204.12 146.07 205.13 143.49 206.13 140.91 207.13 138.66 207.65 136.41 208.16 133.27 208.94 130.14 209.71 126.55 210.70 122.96 211.69 120.24 212.26 117.52 212.83 114.25 213.27 110.97 213.71 108.12 213.87 105.27 214.03 103.98 213.97 102.69 213.91 101.18 213.77 99.66 213.64 97.14 213.74 94.62 213.84 91.25 214.09 87.88 214.33 82.38 214.92 76.89 215.51 73.63 215.58 70.37 215.65 66.29 215.38 62.20 215.10 58.35 214.45 54.51 213.80 50.77 212.70 47.04 211.61 44.52 210.35 42.00 209.09 40.59 207.80 39.18 206.50 38.56 204.73 37.95 202.97 38.04 201.47 38.13 199.98 38.35 198.33 38.58 196.69 39.15 194.64 39.71 192.59 40.90 190.32 42.10 188.05 43.45 186.01 44.81 183.96 46.72 180.85 48.64 177.74 50.60 174.23 52.56 170.71 55.46 165.87 58.37 161.04 60.35 158.48 62.34 155.92 64.71 153.54 67.09 151.15 69.49 149.15 71.89 147.15 74.51 145.04 77.13 142.93 80.29 141.89 83.45 140.86 83.46 140.86 Z" data-drauu_index="5"></path>
</svg>