<svg width="980" height="551" xmlns="http://www.w3.org/2000/svg" xmlns:xlink="http://www.w3.org/1999/xlink">
<path fill="#ff595e" d="M 113.07 120.34 Q 113.07 120.34 113.73 122.42 114.39 124.50 114.27 126.04 114.14 127.58 114.09 129.02 114.03 130.46 114.01 131.72 113.98 132.97 113.80 134.42 113.63 135.87 113.35 137.92 113.07 139.97 111.71 142.15 110.34 144.32 110.33 144.32 110.33 144.32 110.32 144.32 110.32 144.32 109.70 142.73 109.08 141.14 109.29 139.36 109.50 137.58 109.58 136.47 109.66 135.36 109.82 134.13 109.98 132.89 110.01 131.60 110.03 130.31 110.09 128.78 110.15 127.24 110.30 125.55 110.45 123.85 111.75 122.09 113.05 120.33 113.06 120.33 Z" data-drauu_index="14"></path><path fill="#ff595e" d="M 103.60 135.37 Q 103.60 135.37 105.11 135.99 106.61 136.62 107.18 137.55 107.76 138.47 108.32 139.34 108.88 140.22 109.71 141.44 110.54 142.67 111.60 142.17 112.67 141.67 114.22 140.51 115.77 139.34 116.90 138.52 118.04 137.71 119.08 136.79 120.12 135.87 120.89 135.16 121.67 134.44 123.63 133.38 125.58 132.31 125.59 132.31 125.59 132.32 125.60 132.32 125.60 132.32 124.99 134.84 124.38 137.37 123.57 138.12 122.76 138.88 121.56 139.92 120.37 140.96 119.27 141.75 118.17 142.53 116.72 143.62 115.28 144.70 114.19 145.60 113.11 146.50 111.36 146.76 109.61 147.02 108.53 146.10 107.44 145.19 106.48 143.79 105.52 142.38 104.94 141.48 104.36 140.58 103.75 139.59 103.14 138.60 103.36 136.99 103.58 135.38 103.59 135.37 Z" data-drauu_index="15"></path><path fill="#ff595e" d="M 553.07 108.65 Q 553.07 108.65 553.07 108.65 553.07 108.66 553.06 108.66 553.06 108.66 553.07 108.66 Z" data-drauu_index="0"></path><path fill="#ff595e" d="M 797.02 76.35 Q 797.02 76.35 797.01 76.35 797.01 76.35 797.01 76.36 797.00 76.36 797.01 76.35 Z" data-drauu_index="0"></path>
</svg>